<?xml version="1.0" encoding="utf-8"?>
<!-- Generator: Adobe Illustrator 25.3.1, SVG Export Plug-In . SVG Version: 6.00 Build 0)  -->
<svg version="1.1" id="Layer_1" xmlns="http://www.w3.org/2000/svg" xmlns:xlink="http://www.w3.org/1999/xlink" x="0px" y="0px"
	 viewBox="0 0 240 269" style="enable-background:new 0 0 240 269;" xml:space="preserve">
<style type="text/css">
	.st0{fill:#FFC9C7;}
	.st1{stroke:#000000;stroke-miterlimit:10;}
</style>
<g>
	<circle class="st0" cx="120" cy="117.71" r="103.93"/>
	<g>
		<g>
			<path class="st1" d="M115.38,157.71c1.74,1.2,1.75,2.26,0.03,3.6c1.52,0,3.03,0,4.55,0c-2.32,0.58-4.64,1.14-6.76-0.55
				c-0.35-0.28-0.78-0.58-0.94-0.99c-0.72-1.85-1.55-1.1-2.36-0.16c-0.9,1.05-1.74,2.15-2.61,3.23c-0.09-0.09-0.18-0.18-0.27-0.28
				c1.71-2.05,3.43-4.1,5.14-6.15c-0.14-0.18-0.29-0.36-0.43-0.55c-3.16,0.31-5.8,1.96-7.79,4.69c-3.91,5.38-5.02,11.56-2.69,17.95
				c3.26,8.95,10.11,9.98,17.94,8.81c-6.28,2.09-13.09,0.1-16.46-4.78c-5.72-8.29-3.23-23.36,7.06-26.77
				c1.37-0.45,2.71-1.05,4.06-1.58c1.45-0.57,2.8-0.25,4,0.72c1.31,1.07,1.16,2.27-0.77,3.46c1.49-1.63,0.65-2.15-0.39-2.39
				c-1.04-0.25-2.11-0.37-3.17-0.41c-0.84-0.03-1.36,0.48-1.27,1.43c1.1,0.26,2.15,0.51,3.2,0.76c-0.82-0.01-1.65-0.1-2.45,0.02
				c-0.3,0.04-0.8,0.76-0.76,0.84c0.4,0.69,0.84,1.7,1.41,1.84c0.79,0.19,1.71-0.31,2.58-0.51c-0.25-0.65-0.5-1.29-0.74-1.94
				C115.42,157.92,115.4,157.81,115.38,157.71z M117.8,155.71c-1.97-1.58-2.97-1.69-3.85-0.7
				C115.1,155.22,116.28,155.43,117.8,155.71z"/>
			<path class="st1" d="M123.61,137.01c-0.17-0.68-0.67-1.56-0.44-2c0.75-1.48,0.34-2.66-0.35-3.9c-0.12-0.21-0.08-0.52-0.12-0.79
				c0.26,0.15,0.52,0.3,0.78,0.45c0.09-0.09,0.18-0.18,0.27-0.27c0.2,0.57,0.41,1.14,0.69,1.93c0.59-0.51,1.09-0.93,1.87-1.59
				c0.4,0.96,0.76,1.81,1.11,2.66c-0.41-0.63-0.82-1.26-1.44-2.22c-0.51,0.94-1.27,1.7-1.18,2.29c0.27,1.66,0.85,3.28,1.41,4.86
				c0.11,0.32,0.69,0.56,1.06,0.58c0.16,0.01,0.53-0.63,0.51-0.95c-0.08-1.54-0.26-3.08-0.4-4.62c0.27,1.54,0.67,3.07,0.76,4.62
				c0.06,1.01,0.25,1.35,1.16,1.57c1.73,0.41,3.41,1.05,5.11,1.6c-0.46-0.1-0.93-0.17-1.39-0.29c-1.26-0.32-2.51-0.71-3.78-0.96
				c-0.39-0.08-0.84,0.21-1.27,0.32c0.29,0.42,0.52,0.91,0.89,1.23c0.37,0.32,0.86,0.46,1.29,0.68c-0.7-0.16-1.4-0.31-2.28-0.51
				c-0.18,0.63-0.38,1.3-0.6,2.07c-1-3.85-4.12-5.08-6.59-7.11c-2.9-2.39-5.67-4.98-8.5-7.48c1.53,1.29,3.03,2.61,4.58,3.86
				c2.41,1.94,4.86,3.82,7.29,5.73c0.09-0.1,0.17-0.2,0.26-0.3c-0.25-0.51-0.5-1.02-0.75-1.52c0.47,0.4,0.93,0.81,1.4,1.21
				c0.12-0.09,0.24-0.18,0.36-0.27c-0.4-1.14-0.8-2.28-1.19-3.43c-0.17,0.04-0.35,0.08-0.52,0.12
				C123.61,135.4,123.61,136.21,123.61,137.01z"/>
			<path class="st1" d="M78.95,60.3c-2.56,0.39-5.12,0.78-7.68,1.17c-0.08-0.19-0.17-0.39-0.25-0.58c1.57-1.33,3.03-2.84,4.73-3.94
				c4.57-2.96,9.22-5.76,13.87-8.57c2.4-1.45,4.8-2.93,7.32-4.1c4.5-2.08,9.42-1.88,14.26-1.73c3.49,0.11,6.99,0.61,10.48,0.96
				c0.45,0.05,0.89,0.25,1.3,0.6c-2.48-0.34-4.97-0.86-7.45-0.97c-6.6-0.29-13.38-0.97-19.43,2.07c-5.76,2.89-11.2,6.51-16.74,9.89
				c-1.84,1.13-3.54,2.51-5.28,3.81c-0.58,0.44-1.09,1-1.9,1.74c2.53-0.12,4.64-0.21,6.76-0.31C78.92,60.36,78.95,60.3,78.95,60.3z"
				/>
			<path class="st1" d="M196.51,103.34c1.97-1.68,3.94-3.37,5.91-5.05c0.17,0.12,0.35,0.24,0.52,0.36
				c-0.63,1.95-1.07,4.01-1.94,5.84c-2.32,4.92-4.79,9.76-7.26,14.59c-1.28,2.49-2.53,5.02-4.06,7.34
				c-2.73,4.14-7.01,6.57-11.2,8.99c-3.02,1.75-6.26,3.16-9.41,4.71c-0.4,0.2-0.88,0.26-1.42,0.18c2.29-1.03,4.68-1.89,6.84-3.11
				c5.77-3.23,11.88-6.23,15.42-12.01c3.37-5.5,6.09-11.44,9-17.23c0.97-1.93,1.69-4,2.48-6.02c0.27-0.68,0.4-1.42,0.69-2.48
				c-2.09,1.43-3.83,2.63-5.58,3.82C196.5,103.27,196.51,103.34,196.51,103.34z"/>
			<path class="st1" d="M94.01,99.48c-1.05-0.93-2.09-1.85-3.14-2.78c-0.13,0.08-0.25,0.16-0.38,0.25c0.44,1.13,0.82,2.28,1.31,3.38
				c3.38,7.58,7.78,14.37,12.94,20.57c0.57,0.68,1.01,1.5,1.51,2.26c-4.24-4.42-7.78-9.51-10.85-14.96c-2-3.55-3.53-7.41-5.33-11.11
				c-0.45-0.92-1.06-1.77-1.69-2.55c-1.45-1.79-2.96-3.51-4.44-5.27c1.51,1.58,3.03,3.15,4.54,4.73c0.09-0.08,0.18-0.17,0.27-0.25
				c-0.23-0.8-0.47-1.59-0.7-2.39c1.11,2.89,2.91,5.14,5.19,6.96C93.59,98.59,93.77,99.09,94.01,99.48z"/>
			<path class="st1" d="M120.55,186.69c5.65-3.56,9.12-12.76,5.82-16.01c0.02,4.53-2.16,7.54-5.33,9.78
				c-2.46,1.74-5.16,2.32-8.05,1.58c3.49,0.68,6.46-0.67,9.1-3.04c2.72-2.43,4.36-5.49,3.78-9.78c1.36,0.73,1.68,2.02,1.88,3.2
				C128.62,177.31,126.32,184.67,120.55,186.69z"/>
			<path class="st1" d="M139.61,144.61c0.35,0.06,0.69,0.12,1.04,0.18c0.04-0.12,0.07-0.25,0.11-0.37
				c-2.14-1.07-4.27-2.14-6.41-3.22c2.08,0.85,4.13,1.81,6.25,2.51c1.64,0.54,3.35,1,5.05,1.07c3.47,0.15,6.96-0.16,10.69,1.17
				C150.28,149.22,145.03,145.52,139.61,144.61z M145.2,144.99c-0.03,0.23-0.05,0.46-0.08,0.69c3.17,1.17,6.35,1.85,9.61,0.6
				c0.01-0.22,0.02-0.45,0.03-0.67C151.57,145.4,148.38,145.19,145.2,144.99z"/>
			<path class="st1" d="M124.62,37.35c4.46-0.45,8.64,0.25,12.51,3.19c-5.96-3.32-11.81-3.96-17.56-0.36
				c5.27-3.8,10.1-8.61,17.31-7.4C132.2,32.54,128.27,34.46,124.62,37.35z"/>
			<path class="st1" d="M101.39,83.84c1.29,1.58,2.67,3.08,3.85,4.75c3.59,5.08,7.2,10.15,10.59,15.4c1.3,2.01,2.02,4.47,2.81,6.84
				c-1.97-5.02-4.52-9.64-7.62-13.87c-2.73-3.72-5.54-7.37-8.29-11.07c-0.49-0.65-0.88-1.39-1.31-2.09
				C101.42,83.81,101.39,83.84,101.39,83.84z"/>
			<path class="st1" d="M52.91,172.02c-0.2,0.66-0.36,1.33-0.6,1.97c-1.39,3.55-0.8,6.03,2.06,8.3c3.54,2.82,7.57,3.03,11.7,2.57
				c2.31-0.26,4.61-0.55,6.93-0.68c-3.65,0.74-7.29,1.42-11.04,1.14c-3.22-0.24-6.23-0.92-8.68-3.5c-2.23-2.34-2.66-4.66-1.35-7.7
				c0.3-0.7,0.68-1.37,1.02-2.06L52.91,172.02z"/>
			<path class="st1" d="M94.86,200.36c0-2.8-0.57-5.71-0.65-8.51c-0.15-4.72-2.02-7.64-5.82-9.06c-3.52-1.31-7.01-0.53-10.48,0.33
				c0.43,0.07,0.86,0.01,1.29-0.02c2.17-0.17,4.35-0.52,6.51-0.45c4.33,0.15,7.04,2.61,7.8,7.33l0.25,9.73"/>
			<path class="st1" d="M48.25,131.44c1.22-0.81,2.43-1.64,3.67-2.41c3.78-2.33,5.36-6.04,5.42-10.68
				c0.05-4.15,0.01-8.29,0.08-12.44c0,4.98,0.16,9.97-0.05,14.94c-0.16,3.82-2.08,6.65-5.13,8.45c-1.31,0.77-2.68,1.41-4.02,2.12
				L48.25,131.44z"/>
			<path class="st1" d="M52.55,167.09c-3.48-0.4-5.4-3.19-4.41-6.81c0.34-1.25,1.43-2.24,2.17-3.32c-4.8-3.25-6.84-7.13-4.4-8.82
				c-0.96,1.07-0.71,2.21-0.25,3.39c1.09,2.79,3.09,4.35,5.63,5.17c0.51,0.16,1.03,0.28,1.58,0.68c-0.37,0.07-0.75,0.15-1.12,0.21
				c-2.13,0.33-3.39,1.7-3.54,3.82c-0.16,2.23,1.08,4.43,2.87,5.13c0.48,0.19,0.95,0.4,1.43,0.6
				C52.52,167.13,52.55,167.09,52.55,167.09z"/>
			<path class="st1" d="M192.67,58.69c1.12,2.14,2.14,4.34,3.37,6.42c3.08,5.21,6.28,10.34,9.35,15.55
				c1.09,1.85,2.09,3.83,1.64,6.17c-0.35-4.62-3.27-7.83-5.44-11.48c-3.21-5.4-6.31-10.89-9.45-16.35
				C192.31,58.91,192.49,58.8,192.67,58.69z"/>
			<path class="st1" d="M139.6,163.57c-0.42,0.27-0.85,0.54-1.44,0.91c-0.08-0.62-0.15-0.97-0.16-1.32
				c-0.06-2.44-1.27-3.61-3.42-2.98c-2,0.59-3.94,1.47-5.89,2.29c-2.01,0.85-4,1.78-6.12,2.33c3.14-1.48,6.25-3.04,9.43-4.41
				c1.15-0.5,2.45-0.74,3.69-0.79c1.67-0.07,2.55,0.86,2.64,2.73c0.05,1.09,0.4,1.44,1.3,1.28L139.6,163.57z"/>
			<path class="st1" d="M138.15,41.36c2.87,2.34,4.73,5.34,4.71,9.36c-0.01,1.41-0.77,2.28-2.03,1.73c-2.53-1.1-4.98-2.45-7.47-3.69
				c0.06-0.15,0.12-0.3,0.18-0.45c1.95,1.03,3.9,2.08,5.86,3.07c2.39,1.21,3.15,0.64,2.82-2.17
				C141.84,46.04,140.24,43.57,138.15,41.36z"/>
			<path class="st1" d="M177.97,112.4c-3.06,3.39-6.12,6.78-9.19,10.15c-1.69,1.85-3.4,3.69-5.12,5.5
				c-0.51,0.54-1.11,0.99-1.86,1.21c5.09-5.47,10.18-10.94,15.29-16.4c0.22-0.24,0.6-0.29,0.91-0.42L177.97,112.4z"/>
			<path class="st1" d="M169.9,40.1c5.67,2.32,11.6,4.07,16.04,9.19C181.23,44.78,175.31,43.02,169.9,40.1z"/>
			<path class="st1" d="M139.63,163.61c3.91-3.32,6.84-8.06,11.73-9.97c-0.63,0.45-1.31,0.82-1.89,1.35
				c-2.46,2.26-4.87,4.59-7.35,6.83c-0.76,0.69-1.68,1.18-2.52,1.76C139.6,163.57,139.63,163.61,139.63,163.61z"/>
			<path class="st1" d="M105.75,62.77c0.53,0.06,1.06,0.13,1.59,0.19c0.02,0.22,0.04,0.43,0.06,0.65
				c-4.22,0.95-8.43,1.89-12.65,2.81c-0.07,0.01-0.21-0.36-0.16-0.28c2.61-0.57,5.22-1.13,7.83-1.72c0.85-0.19,1.7-0.42,2.51-0.76
				c0.35-0.14,0.58-0.62,0.87-0.94C105.79,62.72,105.75,62.77,105.75,62.77z"/>
			<path class="st1" d="M148.97,34.92c2.64-0.25,5.09-0.47,7.54-0.7c0.01,0.09,0.03,0.18,0.04,0.27c-2.02,0.22-4.05,0.44-6.07,0.66
				c-0.03,0.21-0.06,0.43-0.1,0.64c1.14,0.63,2.28,1.25,3.63,1.99C151,37.89,149.64,37.18,148.97,34.92z"/>
			<path class="st1" d="M120.68,126.81c-1.98-3.15-4.32-5.78-7.73-7.01c-0.62-0.22-1.09-0.97-1.63-1.47
				c1.4,0.74,2.83,1.41,4.19,2.23C117.86,121.98,119.67,124,120.68,126.81z"/>
			<path class="st1" d="M48.22,131.41c-0.61,0.42-1.18,0.93-1.83,1.24c-2.7,1.29-2.91,3.48-1.84,6.29c0.39,1.02,1.12,1.88,1.58,2.61
				c-1.65-1.14-2.81-3.37-2.45-5.72c0.16-1.04,0.83-2.18,1.57-2.87c0.81-0.75,1.98-1.04,2.99-1.53
				C48.25,131.44,48.22,131.41,48.22,131.41z"/>
			<path class="st1" d="M81.23,67.03c3.94-0.74,7.6-0.01,10.9,2.61C88.73,67.51,85.08,66.7,81.23,67.03z"/>
			<path class="st1" d="M101.42,83.81c-1.34-2.02-2.73-4-4.02-6.07c-0.84-1.35-1.52-2.82-2.04-4.39c0.84,1.48,1.68,2.96,2.53,4.43
				c1.16,2.02,2.34,4.04,3.51,6.06C101.39,83.84,101.42,83.81,101.42,83.81z"/>
			<path class="st1" d="M86.41,87.72c-0.67-0.74-1.38-1.44-1.99-2.22c-0.38-0.48-0.61-1.09-1.13-1.45
				c-1.01,2.15-0.01,3.53,0.79,4.97c-1.61-1.24-2.11-3.52-1.01-5.75C84.23,84.83,85.32,86.27,86.41,87.72z"/>
			<path class="st1" d="M122.34,127.35c-0.87-3.26-1.75-6.53-2.62-9.79c0.11-0.03,0.21-0.07,0.32-0.1c0.88,3.26,1.76,6.52,2.65,9.78
				C122.57,127.28,122.46,127.32,122.34,127.35z"/>
			<path class="st1" d="M72.15,78.31c2.54-1.41,4.48-2.96,4.57-6.13C77.09,75.27,75.34,77.73,72.15,78.31z"/>
			<path class="st1" d="M143.94,134.74c2.35-1.92,4.68-3.85,7.05-5.74c0.63-0.5,1.36-0.86,2.18-1.02c-3.09,2.24-6.17,4.48-9.26,6.72
				C143.9,134.7,143.94,134.74,143.94,134.74z"/>
			<path class="st1" d="M126.39,149.32c-0.65,2.75-1.3,5.5-1.95,8.25c-0.12-0.03-0.24-0.07-0.36-0.1c0.68-2.74,1.36-5.48,2.04-8.22
				C126.21,149.26,126.3,149.29,126.39,149.32z"/>
			<path class="st1" d="M105.76,175.18c1.44,1.92,2.68,3.57,3.99,5.31C107.88,179.3,106.74,177.55,105.76,175.18z"/>
			<path class="st1" d="M107.53,124.17c1.57,1.69,3.14,3.39,4.71,5.08C110.67,127.56,109.1,125.86,107.53,124.17z"/>
			<path class="st1" d="M130.57,142.34c2.01,0.71,4.02,1.43,6.03,2.14c-1.59-0.4-3.18-0.75-4.75-1.22
				C131.38,143.11,130.99,142.65,130.57,142.34z"/>
			<path class="st1" d="M52.93,172.06c0.08-0.52,0.08-1.07,0.25-1.55c0.46-1.31,0.01-2.38-0.63-3.42c0,0-0.03,0.04-0.03,0.04
				c0.91-0.13,1.32,0.43,1.18,1.33c-0.18,1.2-0.52,2.37-0.79,3.55C52.91,172.02,52.93,172.06,52.93,172.06z"/>
		</g>
		<path d="M95.09,200.32l-1.77,7.73c-0.03,0.31-0.11,0.84-0.24,1.59c-0.13,0.99-0.39,2.46-0.79,4.39c-0.03,0.06-0.13,0.52-0.3,1.37
			c-0.24,1.2-0.47,2.71-0.71,4.53c-0.09,1.01-0.25,2.51-0.49,4.51c-0.02,0.04-0.13,1.02-0.34,2.94c-0.21,1.92-0.31,2.91-0.31,2.96
			c-0.05,0.13-0.16,1.21-0.31,3.24c-0.08,0.49-0.14,1.2-0.18,2.13c-0.04,0.93-0.01,1.39,0.09,1.38l0.49-0.1
			c0.12,0,0.4-0.01,0.83-0.03c0.25,0,0.45-0.03,0.6-0.09l0.43-0.05l0.39-0.14c0.1-0.01,0.2,0.01,0.28,0.04
			c0.3,0.12,0.38,0.34,0.25,0.66c-0.11,0.28-0.33,0.44-0.65,0.48c-0.34,0.11-0.82,0.24-1.43,0.39c-0.33,0.07-0.79,0.19-1.38,0.37
			l-0.3,1.11c-0.14,0.71-0.44,1.86-0.88,3.45c-0.27,0.71-0.71,1.84-1.34,3.38c-0.98,2.41-2.19,4.09-3.62,5.03
			c-0.76,0.51-1.49,0.71-2.19,0.6c-0.18-0.05-0.35-0.11-0.53-0.18c-0.83-0.34-1.45-0.91-1.84-1.72c-0.47-0.91-0.56-2.22-0.27-3.92
			l0.12-0.4c0.2-0.79,0.42-1.41,0.68-1.85c0.21-0.39,0.54-0.93,0.99-1.61c0.58-1.11,1.62-2.12,3.14-3.02
			c1.11-0.59,2.61-1.44,4.48-2.55l0.07-0.72c0.1-0.68,0.22-1.8,0.36-3.36c-0.01-0.35,0.18-2.25,0.57-5.71
			c0.59-5.29,1.19-9.55,1.81-12.79l2.8-15.37 M86.5,243.08l0.04-0.1c0.08-0.19,0.18-0.5,0.32-0.92c0.13-0.42,0.24-0.73,0.33-0.95
			c0.04-0.16,0.12-0.44,0.23-0.84l0.3-1.22c-0.07-0.08-0.21-0.06-0.43,0.05l-0.52,0.27l-0.47,0.33c-0.23,0.13-0.55,0.32-0.98,0.57
			c-0.42,0.25-0.74,0.44-0.95,0.59c-0.65,0.43-1.07,0.75-1.28,0.94l-0.63,0.53c-0.29,0.28-0.44,0.44-0.46,0.49
			c-0.39,0.41-0.87,1.3-1.42,2.67c-0.34,0.83-0.52,1.7-0.54,2.62c-0.04,1.2,0.3,1.95,1.03,2.25c0.88,0.36,1.95-0.54,3.22-2.68
			C85.03,246.4,85.76,244.87,86.5,243.08z"/>
		<path d="M120.37,211.52c-0.05,0.53-0.1,0.83-0.17,0.9c-0.05,0.21-0.29,0.41-0.73,0.62c-0.44,0.21-0.9,0.28-1.38,0.21
			c-0.83-0.12-1.34-0.08-1.52,0.1c-2.65,1.13-5.02,2.73-7.09,4.81c-2.56,2.56-4.81,5.32-6.75,8.27c-1.78,2.7-3.36,5.81-4.74,9.34
			c-1.13,2.93-1.7,5.66-1.7,8.2v1.25c0,0.62,0.03,1,0.1,1.14c0.32,1.38,0.67,2.42,1.04,3.11c0.48,0.95,1.38,1.42,2.7,1.42
			c0.97,0,1.94-0.24,2.91-0.73c0.55-0.28,1.45-1.05,2.7-2.32c0.78-0.78,1.46-1.65,2.02-2.61c0.56-0.96,0.97-1.82,1.23-2.58
			c0,0.18,0.1-0.1,0.31-0.86c0.14-0.51,0.21-0.92,0.21-1.25c0-0.16-0.02-0.41-0.05-0.76c-0.03-0.35-0.05-0.58-0.05-0.69
			c0-0.3,0.03-0.63,0.1-1c0.09-0.21,0.23-0.45,0.42-0.73c0.32-0.25,0.67-0.4,1.04-0.45c0.55-0.09,0.83,0.1,0.83,0.59
			c0,0.21-0.08,0.72-0.24,1.52c-0.51,2.7-1.3,4.97-2.39,6.82c-1.18,2.01-2.83,3.77-4.95,5.29c-1.27,0.9-2.51,1.35-3.74,1.35
			c-2.19,0-3.79-1.05-4.81-3.15c-0.46-0.95-0.77-1.97-0.93-3.08c-0.05-0.23-0.07-1.19-0.07-2.87c0-0.67,0.1-1.58,0.31-2.73
			c0.18-1.04,0.32-1.73,0.42-2.08c0.18-0.78,0.42-1.46,0.69-2.04c0.18-0.39,0.47-1.09,0.86-2.11c0.53-1.36,1.81-3.96,3.84-7.78
			c0.07-0.16,0.76-1.26,2.08-3.29c0.44-0.6,0.98-1.34,1.63-2.21c0.51-0.76,2.01-2.26,4.5-4.5c2.19-1.96,3.64-3.19,4.36-3.7
			c0.88-0.62,1.6-1.07,2.18-1.35l0.8-0.38c0.46-0.25,0.93-0.51,1.42-0.76c0.6-0.35,1.08-0.52,1.45-0.52c0.3,0,0.55,0.12,0.76,0.35
			c0.12,0.16,0.22,0.32,0.33,0.48C120.39,210.92,120.42,211.18,120.37,211.52z"/>
		<path d="M136.87,240.69c0,1.85-0.86,3.6-2.59,5.26c-1.34,1.29-3.03,2.39-5.09,3.29c-1.06,0.46-1.75,0.7-2.08,0.73
			c-0.14,0-0.27-0.07-0.38-0.22c-0.12-0.15-0.16-0.27-0.14-0.36c0.05-0.23,0.31-0.48,0.78-0.76c0.47-0.28,1.25-0.7,2.34-1.28
			c2.1-1.13,3.62-2.34,4.57-3.63c0.55-0.76,0.83-1.66,0.83-2.7c0-1.78-0.97-3.34-2.91-4.7c-1.55-1.08-3.31-1.9-5.29-2.46
			c-0.72-0.21-1.79-0.43-3.22-0.66c-0.21,0-0.38-0.03-0.52-0.1c-0.07-0.02-0.24-0.02-0.52,0l-2.39,0.24
			c-0.25,0.05-0.5,0.13-0.73,0.24c-0.35,0.16-0.63,0.28-0.86,0.35c-0.39,0.18-0.84,0.63-1.35,1.35c-0.23,0.32-0.46,0.53-0.69,0.62
			c-0.23,0.09-0.51,0.24-0.83,0.45c-0.07,0.12-0.21,0.16-0.42,0.14c-0.46-0.05-0.63-0.07-0.52-0.07c-0.69,0-0.98-0.48-0.86-1.45
			c0.09-0.85,1.31-1.58,3.67-2.18c0.97-0.25,1.89-0.43,2.77-0.52c0.48-0.07,1.08-0.16,1.8-0.28c0.81-0.05,1.9,0.02,3.29,0.21
			c1.01,0.16,2.02,0.39,3.01,0.69c2.91,0.92,5.24,2.46,6.99,4.6C136.42,238.6,136.87,239.67,136.87,240.69z"/>
		<path d="M140.73,238.27c0,0.72-0.03,1.27-0.1,1.66l-0.42,2.32c-0.23,1.34-0.35,1.99-0.35,1.97v3.91c0,0.55-0.07,0.86-0.21,0.93
			h-0.55c-0.3,0.05-0.47-0.16-0.52-0.62c0-0.02,0-0.47,0-1.35v-9.93c0-0.21,0.11-0.37,0.33-0.48c0.22-0.12,0.43-0.17,0.64-0.17
			c0.78,0,1.18,0.35,1.18,1.04V238.27z"/>
		<path d="M163.06,190.21c0,3.11-0.19,6.22-0.55,9.31c-0.21,1.71-0.77,4.79-1.7,9.24c-0.28,0.88-0.67,2.31-1.18,4.29
			c-0.23,0.99-0.65,2.42-1.25,4.29c-0.39,1.36-1.03,3.19-1.9,5.5c-1.18,3.07-1.79,4.66-1.83,4.77c-0.48,1.22-1.06,2.68-1.73,4.36
			c0,0.12-0.05,0.21-0.14,0.28l-6.78,14.39c-0.07,0.16-0.91,1.75-2.53,4.77c-0.28,0.6-0.74,1.48-1.38,2.62
			c-0.58,0.79-1.1,1.19-1.56,1.19c-0.02,0-0.21,0-0.55,0c-0.35,0-0.55-0.01-0.62-0.03c-0.39-0.21-0.59-0.54-0.59-1
			c0-0.39,0.53-1.02,1.59-1.87c0.46-0.35,0.98-0.84,1.55-1.49c0.07-0.12,0.29-0.44,0.66-0.97c0.16-0.23,0.35-0.51,0.55-0.83
			c0.6-1.08,1.46-2.75,2.59-4.99c0.55-1.08,1.35-2.7,2.39-4.84c0.14-0.35,0.34-0.82,0.61-1.42l0.67-1.38
			c1.2-2.56,2.67-5.9,4.4-10.03c0.42-1.22,1.02-3,1.8-5.33c0.39-1.36,1.33-4.29,2.8-8.79c0.14-0.62,0.33-1.5,0.59-2.63
			c0.58-2.17,1.13-4.57,1.66-7.2c0.58-2.91,0.87-5.29,0.87-7.16v-11.07c0-0.21,0.17-0.31,0.52-0.31c0.39,0,0.62,0.01,0.69,0.03
			c0.23,0.07,0.35,0.25,0.35,0.55V190.21z M152.42,240.88c0.08,0.15,0.12,0.29,0.12,0.43c0,0.14-0.17,0.47-0.52,1
			c-0.35,0.53-0.83,1.31-1.45,2.34c-0.23,0.39-0.35,0.88-0.35,1.48c0,0.48,0.03,0.85,0.1,1.1c0.07,0.25,0.37,0.57,0.9,0.96
			c-0.09,0.23-0.39,0.34-0.9,0.34c-0.55,0-0.98-0.25-1.28-0.76c-0.25-0.44-0.38-0.95-0.38-1.55c0-0.69,0.21-1.45,0.62-2.27
			c0.42-0.71,0.83-1.41,1.25-2.1c0.46-0.8,0.97-1.21,1.52-1.21C152.22,240.65,152.34,240.73,152.42,240.88z"/>
	</g>
</g>
</svg>
