<?xml version="1.0" encoding="utf-8"?>
<!-- Generator: Adobe Illustrator 25.1.0, SVG Export Plug-In . SVG Version: 6.00 Build 0)  -->
<svg version="1.1" id="Layer_1" xmlns="http://www.w3.org/2000/svg" xmlns:xlink="http://www.w3.org/1999/xlink" x="0px" y="0px"
	 viewBox="0 0 792 612" style="enable-background:new 0 0 792 612;" xml:space="preserve">
<style type="text/css">
	.st0{fill:#E5A6A9;}
</style>
<g>
	<path class="st0" d="M450.22,284.3c-21.79,6.9-41.21,13.21-60.74,19.19c-28.72,8.78-57.52,17.29-86.27,25.97
		c-27.75,8.39-49.91-1.53-69.33-20.86c-22.71-22.61-32.78-49.83-29.46-81.69c1.92-18.43,8.59-35.16,20.31-49.67
		c10.36-12.82,23.91-19.26,40.33-19.57c8.92-0.17,17.88-0.47,26.77,0.05c6.29,0.37,8.19-2.41,9.05-8.02
		c1.61-10.54,2.98-21.24,6.02-31.4c5.03-16.8,15.77-29.47,32.47-35.65c27.69-10.24,55.89-19.7,85.98-15.52
		c19.08,2.65,37.83,7.69,56.66,11.96c13.09,2.96,16.58,13.28,17.69,24.86c2.22,23.09,4.27,46.19,6.3,69.3
		c1.51,17.17,1.4,17.32,18.21,22.51c22.73,7.01,45.56,13.69,68.28,20.7c4.99,1.54,9.72,3.9,14.71,8.24
		c-2.71,1.27-5.34,2.73-8.13,3.78c-42.56,16.01-85.16,31.91-127.65,48.12c-2.23,0.85-4.99,4.33-4.94,6.53
		c0.53,24.96,1.56,49.91,2.48,74.87c0.05,1.45,0.31,2.88,0.6,5.48c11.71-1.07,23.13-1.83,34.42-3.49c1.47-0.22,3.03-5.06,3.23-7.86
		c1.62-22.53,2.78-45.09,4.5-67.61c0.25-3.21,2.02-7.21,4.45-9.08c2.38-1.84,6.64-2.2,9.77-1.61c1.07,0.2,1.78,5.24,1.73,8.05
		c-0.5,34.75-1.31,69.5-1.74,104.25c-0.22,17.82,0.46,35.66,0,53.47c-0.09,3.37-3.07,8.88-5.66,9.51
		c-5.36,1.29-11.49,0.55-16.99-0.72c-1.23-0.28-1.85-6.2-1.62-9.44c1.7-23.28,3.7-46.53,5.83-72.57
		c-13.21,3.17-24.31,5.61-35.23,8.72c-1.42,0.4-2.51,4.21-2.64,6.5c-1.03,19.27-1.83,38.56-2.62,57.85
		c-0.23,5.61-2.34,9.53-8.03,11.44c-10.08,3.38-14.01-0.16-12.9-10.6c1.94-18.19,3.11-36.47,4.83-57.55
		c-11.5,3.99-19.74,6.96-28.05,9.66c-2.12,0.69-4.52,0.56-6.79,0.81c-0.23-2.51-1.62-6.25-0.48-7.32
		c5.38-5.09,10.77-11.28,17.4-13.72c17.13-6.3,17.32-5.59,17.25-23.63C450.15,327.75,450.22,306.97,450.22,284.3z M289.95,222.59
		c-6.42,9.69-5.93,15.24,3.55,20.03c10.52,5.31,21.58,10.27,32.97,13.05c36.01,8.78,72.62,9.39,108.73,1.58
		c20.78-4.49,40.96-12.14,61.02-19.47c11.35-4.14,14.83-12.05,12.86-19.89c-8.29,5.2-16.42,12.35-25.9,15.92
		c-48.62,18.27-98.62,24.59-149.65,12C317.45,241.84,298.21,242.21,289.95,222.59z M417.81,78.86c-0.22-0.82-0.45-1.63-0.67-2.45
		c-18.69,4.47-37.59,8.27-55.98,13.74c-7.58,2.26-14.51,7.61-20.88,12.63c-2.63,2.08-3.03,7-4.44,10.62
		c4.09-0.03,8.47,0.86,12.19-0.33c4.11-1.32,7.48-4.76,11.39-6.89c12.23-6.67,24.4-13.5,36.93-19.58
		C403.14,83.31,410.63,81.4,417.81,78.86z M327.01,164.5c-2.88,2.37-6.1,5.03-9.05,7.46c1.24,4.09,2.46,8.13,3.49,11.53
		c4.07,0,7.93,0,11.45,0c1.16-3.99,2.34-8,3.37-11.53C333.03,169.36,329.93,166.86,327.01,164.5z"/>
	<path d="M286.31,468.25c-23.37,0-45.86,0-69.04,0c0.88,1.68,1.59,3.05,2.64,5.05c-7.59,2.86-14.27,0.98-21.29-1.86
		c-5.31-2.15-11.22-3.88-16.89-3.93c-38.97-0.33-77.95-0.18-116.92-0.18c-0.01-0.76-0.02-1.51-0.02-2.27
		c39.25-0.94,78.5-1.88,115.79-2.78c-12.48-18.92-25.14-38.45-38.33-57.61c-1.41-2.05-6.05-2.83-8.99-2.48
		c-1.46,0.17-3.4,4.19-3.51,6.54c-0.4,9.21,0.06,18.45-0.21,27.66c-0.33,11.15-3.23,14.25-13.23,15.23
		c-10.26,1-13.43-2.45-12.02-12.57c1.35-9.72,2.15-19.52,3.56-29.23c0.85-5.86-0.4-9.25-6.76-11.15
		c-5.57-1.66-10.97-4.71-15.71-8.16c-13.51-9.85-15.8-25.96-4.18-37.82c6.4-6.53,15.26-11.03,23.67-15.08
		c4.46-2.14,6.41-4.08,6.64-8.88c0.43-9.21,1-18.44,2.26-27.56c1.36-9.82,6.65-14.26,15.34-13.84c4.57,0.22,6.85,1.79,5.86,7.36
		c-2.26,12.8-3.69,25.74-5.47,38.77c6.99,2.59,13.07,4.75,19.07,7.1c5.53,2.17,9.88,6.42,7.73,12.16
		c-1.37,3.65-6.66,5.84-11.61,9.82c-2.05-10.45-3.21-18.57-14.34-18.82c0,16.06,0,31.9,0,47.73c21.93,1.44,52.84-18.21,51.99-45.35
		c-0.39-12.35-1.36-24.99-4.44-36.89c-6.57-25.38-33.95-37.23-58.62-25.25c-9.28,4.51-16.7,12.73-25.35,18.7
		c-2.65,1.83-6.57,1.79-9.91,2.61c0.17-2.93-0.8-6.89,0.73-8.62c5.24-5.93,10.51-12.76,17.31-16.21
		c22.53-11.43,46.2-12.94,69.83-3.12c16.17,6.72,26.55,18.8,29.67,36.3c7.77,43.69-4.71,62.15-39.57,82.06
		c8.54,24.34,21.78,45.82,40.23,63.98c2.02,1.99,5.85,2.98,8.85,3c24.4,0.15,48.81,0.22,73.21-0.37c4.11-0.1,8.72-2.77,12.08-5.5
		c5.04-4.1,8.66-9.97,13.8-13.9c9.66-7.41,12.95-17.05,12.94-28.67c-0.01-5.9,1.04-11.79,1.88-20.41
		c-4.94,7.38-8.18,12.75-11.97,17.71c-3.42,4.47-7.07,8.92-11.29,12.6c-10.46,9.15-25,4.34-27.24-9.36
		c-1.22-7.48-0.22-15.33-2.31-24.63c-2.48,3.37-5.89,6.4-7.28,10.17c-7,19.09-20.66,27.08-40.46,22.91
		c-10.58-2.23-18.14-8.37-19.92-19.15c-2.55-15.47-3.32-30.9,11.72-41.7c1.07-0.77,1.42-2.54,2.07-3.86
		c5.66-11.41,15.61-16.32,28.73-14.16c10.73,1.76,18.78,10.27,20.4,21.91c0.61,4.38,0.65,8.85,0.94,13.28
		c8.68-0.93,10.95-3.79,8.35-13.92c-1.91-7.42-1.87-11.98,7.15-12.92c9.7-1.01,15.36,2.36,15.16,11.38
		c-0.21,9.73-2.01,19.44-3.32,29.13c-1.13,8.31-2.56,16.57-3.86,24.85c0.84,0.33,1.68,0.66,2.52,0.99c1.56-1.47,3.64-2.66,4.59-4.45
		c8.96-16.75,17.92-33.5,26.38-50.51c1.6-3.22-0.01-8.09,1.68-11.22c1.92-3.58,5.6-8.12,9-8.57c5.6-0.74,14.3-1.29,13.86,7.99
		c-0.75,15.91-2.92,31.75-4.5,47.62c-0.19,1.9-0.44,3.79-0.66,5.68c0.81,0.49,1.62,0.97,2.43,1.46
		c8.55-11.86,17.51-23.44,25.43-35.7c3.1-4.8,5.48-7.6,11.11-4.84c6.41,3.14,3.59,7.57,0.84,10.96
		c-11.4,14.07-22.7,28.26-34.93,41.59c-6.59,7.19-12.15,14.16-13.63,24.14c-0.9,6.04-3.31,11.86-5.21,18.37
		c135,0.94,269.05,1.87,403.1,2.8c0,0.87,0,1.74,0,2.61c-32.83,0-65.66-0.1-98.49,0.02c-99.11,0.37-198.22,0.89-297.34,1.13
		c-6.89,0.02-10.85,1.5-14.6,8.17c-3.68,6.55-10.14,12.64-16.84,15.99c-4.56,2.28-13.09,1.42-17.16-1.62
		c-3.48-2.6-3.32-10.27-4.41-15.78C284.68,473.27,285.63,471.43,286.31,468.25z M108.84,390.01c0-14.88,0-29.58,0-44.36
		c-13.58,3.17-21.3,12.84-20.81,25.89C88.38,380.78,96.25,388.19,108.84,390.01z M256.07,373.87c-0.64-4.09-0.99-8.26-2-12.26
		c-1.48-5.89-5.04-11.67-11.37-10.12c-4.51,1.1-9.38,5.9-11.54,10.3c-3.49,7.12,1.99,19.27,9.14,21.85
		C249.69,387.03,256.98,388.23,256.07,373.87z M224.88,390.6c-0.79,12.56,3.34,20.99,11.02,22.15c6.63,1,12.27-4.6,14.74-14.48
		C242.23,395.76,233.81,393.26,224.88,390.6z M313.47,471.11c-0.78-1.32-1.56-2.64-2.34-3.97c-3.55,1.6-8.19,2.3-10.4,5
		c-3.71,4.54-7.04,10.24-0.55,18.74C305.1,483.57,309.28,477.34,313.47,471.11z"/>
	<path d="M583.07,423.65c-8.87,10.02-19.23,11.99-30.27,6.68c-11.04-5.32-15.99-15.46-15.39-27.14c0.65-12.56,1.57-25.54,5.34-37.39
		c5.23-16.44,20.31-24.47,36.44-22.1c3.16,0.46,6.41,1.54,9.21,3.07c5,2.73,16.43,23.11,16.07,28.95c-0.9,14.52-2.41,29-3.25,43.52
		c-0.33,5.63,0.5,11.33,0.8,16.99c0.92,0.2,1.84,0.39,2.75,0.59c1.46-1.97,3.27-3.78,4.33-5.95c6.92-14.19,11.95-28.44,11.19-45.04
		c-0.87-19.22,1.28-38.58,2.12-57.87c0.14-3.19,0.34-6.38,0.52-9.76c-8.67,0-16.59,0.16-24.5-0.06c-5.34-0.15-10.81-0.24-15.92-1.54
		c-2.88-0.73-5.14-3.87-7.68-5.93c2.98-1.06,5.96-3.01,8.94-3.01c10.09,0.02,20.2,0.47,30.26,1.26c8.28,0.65,12.06-2.55,12.03-10.97
		c-0.02-3.8,0.25-8.24,2.19-11.21c1.74-2.67,5.86-4.78,9.12-5.07c1.74-0.15,4.07,3.94,5.7,6.41c0.72,1.09,0.4,2.89,0.48,4.38
		c0.79,14.95,0.79,14.9,16.25,13.93c14.54-0.91,29.09-1.79,43.64-2.51c3.24-0.16,6.65-0.08,9.73,0.8c1.89,0.54,3.28,2.8,4.9,4.29
		c-2.05,1.26-4.04,3.51-6.15,3.62c-20.46,1-40.93,1.7-61.4,2.33c-4.73,0.14-7.81,0.94-7.98,6.82c-0.85,28.24-2.15,56.46-2.99,84.7
		c-0.14,4.75,1.15,9.54,1.78,14.31c1.25,0.23,2.49,0.46,3.74,0.68c3.38-7.95,6.83-15.87,10.11-23.86c3.2-7.8,4.03-15.06,1.18-23.91
		c-5.12-15.9-2.33-31.27,10.72-43.33c1.93-1.79,4.18-3.74,6.61-4.35c2.57-0.65,6.58-0.8,8.02,0.7c1.46,1.51,1.8,6.31,0.49,7.96
		c-17.99,22.5-5.4,43.17,3.64,66.3c8.16-9,15.24-17.1,22.7-24.83c2.08-2.16,5.3-3.21,8-4.77c-0.46,3.28,0.17,7.38-1.58,9.68
		c-6.24,8.21-12.94,16.14-20.15,23.5c-4.02,4.11-6.28,7.29-2.88,12.92c1.76,2.91,2.19,6.71,2.88,10.18
		c4.26,21.47-8.27,26.13-26.3,22.71c-8.15-1.55-12.19-9.21-9.46-18.18c1.59-5.22,4.45-10.56,8.16-14.52
		c5.57-5.94,4.26-10.76,0.19-16.5c-20.39,30.59-26.44,33.55-41.12,19.76c-3.39,5.17-5.95,11.13-10.31,15.15
		c-4.69,4.33-10.94,9.26-16.74,9.56c-7.99,0.41-10.9-7.88-13.37-14.75C585.08,428.69,584.2,426.56,583.07,423.65z M586.7,361.51
		c-0.23-0.23-2-1.81-3.5-3.61c-6.41-7.69-11.41-7.71-16.06,1.03c-3.3,6.19-6.44,13.06-7.18,19.89c-1.28,11.91-1.13,24.05-0.49,36.04
		c0.15,2.79,4.39,7.11,7.2,7.51c2.78,0.4,7.68-2.56,8.94-5.29c3.11-6.75,5.34-14.09,6.69-21.42
		C584.25,385.06,585.12,374.27,586.7,361.51z M677.24,425.33c-1.22-0.08-2.44-0.15-3.65-0.23c-0.98,5.15-2.24,10.28-2.75,15.47
		c-0.13,1.34,2.07,2.92,3.2,4.39c1.4-1.29,3.95-2.54,3.99-3.87C678.19,435.86,677.57,430.59,677.24,425.33z"/>
	<path d="M43.45,363.68c3.98,2.9,8.21,5.97,11.95,8.7c-1.34,4.39-2.86,9.36-4.37,14.28c-4.43,0-9.91,0-14.9,0
		c-1.53-4.61-3.21-9.65-4.72-14.18C35.21,369.7,39.43,366.62,43.45,363.68z"/>
	<path d="M741.04,386.55c-1.46-4.45-3.03-9.22-4.61-14.03c3.6-2.6,7.99-5.77,12.33-8.91c3.38,2.59,7.67,5.88,11.83,9.07
		c-1.4,4.04-3.12,9.01-4.81,13.87C751.47,386.55,746.27,386.55,741.04,386.55z"/>
	<g>
		<path d="M79.2,530.74v-35.69h9.64c5.7,0,10.03,1.49,13,4.47c2.97,2.98,4.45,7.39,4.45,13.24c0,5.85-1.57,10.31-4.7,13.38
			c-3.13,3.07-7.75,4.6-13.85,4.6H79.2z M81.69,528.54h5.91c10.66,0,15.99-5.3,15.99-15.89c0-5.09-1.3-8.93-3.89-11.52
			c-2.6-2.59-6.41-3.88-11.44-3.88h-6.57V528.54z"/>
		<path d="M124.34,517.73c0-4.25,1.03-7.65,3.1-10.2c2.07-2.55,4.87-3.83,8.41-3.83c3.13,0,5.61,1.09,7.42,3.28
			c1.81,2.19,2.72,5.15,2.72,8.87v1.95h-19.16c0.03,3.64,0.88,6.43,2.55,8.35c1.67,1.92,4.06,2.88,7.17,2.88
			c1.55,0,2.91-0.11,4.09-0.34c1.18-0.23,2.6-0.67,4.28-1.34v2.2c-1.48,0.65-2.87,1.09-4.15,1.33c-1.28,0.24-2.69,0.35-4.22,0.35
			c-3.83,0-6.83-1.19-9.01-3.56C125.42,525.29,124.34,521.98,124.34,517.73z M126.98,515.61h16.43c0-3.04-0.68-5.43-2.03-7.14
			c-1.35-1.71-3.26-2.57-5.71-2.57c-2.45,0-4.45,0.84-5.99,2.51S127.24,512.48,126.98,515.61z"/>
		<path d="M162.97,529.63v-2.6c2.6,1.34,5.3,2.01,8.09,2.01s4.88-0.43,6.26-1.28c1.38-0.86,2.07-1.99,2.07-3.41
			s-0.54-2.58-1.63-3.49c-1.09-0.91-2.9-1.81-5.43-2.71c-2.53-0.91-4.36-1.72-5.48-2.43c-1.12-0.72-1.94-1.52-2.48-2.4
			s-0.8-1.93-0.8-3.16c0-1.97,0.84-3.54,2.51-4.72c1.71-1.16,4.02-1.74,6.93-1.74s5.66,0.54,8.23,1.61l-0.9,2.2
			c-2.67-1.08-5.08-1.61-7.24-1.61c-2.16,0-3.87,0.36-5.14,1.08s-1.9,1.74-1.9,3.07s0.49,2.41,1.47,3.24
			c0.98,0.83,2.78,1.72,5.4,2.65s4.48,1.77,5.58,2.48c2.18,1.37,3.27,3.22,3.27,5.54c0,2.32-0.9,4.12-2.71,5.38
			c-1.8,1.26-4.42,1.89-7.86,1.89S165.04,530.7,162.97,529.63z"/>
		<path d="M200.26,496.85c0-1.57,0.44-2.36,1.33-2.36c0.57,0,1.01,0.2,1.33,0.61c0.32,0.41,0.48,0.98,0.48,1.72
			c0,0.74-0.16,1.32-0.48,1.75c-0.32,0.42-0.77,0.63-1.33,0.63C200.7,499.2,200.26,498.42,200.26,496.85z M200.6,530.74v-26.53h2.05
			v26.53H200.6z"/>
		<path d="M220.53,535.45c0-1.79,0.55-3.29,1.65-4.5c1.1-1.21,2.62-2.04,4.56-2.48c-0.77-0.36-1.38-0.85-1.83-1.49
			c-0.45-0.63-0.67-1.35-0.67-2.15c0-1.79,1.09-3.36,3.26-4.7c-1.51-0.63-2.69-1.63-3.53-2.99c-0.84-1.36-1.27-2.92-1.27-4.68
			c0-2.67,0.84-4.79,2.51-6.39c1.67-1.59,3.94-2.39,6.78-2.39c1.78,0,3.14,0.17,4.1,0.51h8.55v1.68l-5.51,0.34
			c1.49,1.82,2.24,3.82,2.24,5.99c0,2.58-0.86,4.65-2.57,6.23c-1.72,1.58-4.03,2.37-6.95,2.37c-1.22,0-2.07-0.05-2.57-0.15
			c-1.99,1.03-2.99,2.34-2.99,3.95c0,0.85,0.33,1.46,0.99,1.86s1.75,0.59,3.26,0.59h4.69c2.93,0,5.16,0.58,6.69,1.75
			c1.54,1.16,2.31,2.88,2.31,5.16c0,2.8-1.15,4.96-3.44,6.48c-2.29,1.52-5.56,2.28-9.81,2.28c-3.31,0-5.87-0.64-7.71-1.93
			C221.45,539.54,220.53,537.75,220.53,535.45z M223.12,535.23c0,3.65,2.69,5.47,8.06,5.47c7.04,0,10.56-2.22,10.56-6.66
			c0-1.59-0.55-2.75-1.64-3.47c-1.09-0.72-2.86-1.07-5.31-1.07h-4.36C225.56,529.5,223.12,531.41,223.12,535.23z M226.94,507.43
			c-1.16,1.22-1.75,2.88-1.75,4.97c0,2.09,0.59,3.71,1.78,4.85c1.21,1.12,2.9,1.68,5.07,1.68c2.17,0,3.86-0.56,5.05-1.68
			s1.79-2.77,1.79-4.95c0-2.18-0.6-3.84-1.82-4.98c-1.21-1.14-2.91-1.72-5.1-1.72C229.78,505.6,228.1,506.21,226.94,507.43z"/>
		<path d="M262.04,530.74v-26.53h2.05l0.44,3.64h0.15c1.74-2.77,4.82-4.15,9.22-4.15c6.03,0,9.04,3.23,9.04,9.69v17.36h-2.39v-17.21
			c0-2.65-0.56-4.59-1.67-5.81c-1.12-1.22-2.86-1.83-5.24-1.83c-3.15,0-5.46,0.8-6.96,2.39c-1.49,1.6-2.24,4.2-2.24,7.81v14.65
			H262.04z"/>
		<path d="M329.12,530.74v-35.69h9.81c4.37,0,7.6,0.74,9.7,2.23c2.09,1.49,3.14,3.75,3.14,6.8c0,2.08-0.64,3.81-1.92,5.17
			c-1.28,1.37-3.13,2.25-5.55,2.64v0.15c2.86,0.42,4.96,1.32,6.3,2.7s2.02,3.29,2.02,5.75c0,3.27-1.09,5.8-3.26,7.58
			s-5.27,2.67-9.3,2.67H329.12z M331.61,510.95h7.86c3.34,0,5.77-0.55,7.3-1.66c1.53-1.11,2.29-2.84,2.29-5.21
			c0-2.37-0.85-4.1-2.54-5.19c-1.69-1.09-4.26-1.63-7.71-1.63h-7.2V510.95z M331.61,528.54h8.4c6.61,0,9.91-2.68,9.91-8.05
			c0-4.9-3.48-7.35-10.45-7.35h-7.86V528.54z"/>
		<path d="M367.4,504.21h2.49l5.61,14.9c1.66,4.45,2.74,7.54,3.25,9.28h0.15c0.59-1.82,1.7-4.97,3.34-9.43l5.61-14.75h2.49
			l-11.89,30.83c-0.94,2.49-1.75,4.18-2.42,5.08c-1.3,1.76-3.12,2.64-5.44,2.64c-0.93,0-1.96-0.16-3.1-0.49v-2.1
			c0.93,0.26,1.94,0.39,3.05,0.39c1.63,0,2.93-0.81,3.91-2.42c0.54-0.85,1.13-2.15,1.78-3.91l1.32-3.47L367.4,504.21z"/>
		<path d="M432.38,530.74v-35.69h8.49c4.41,0,7.68,0.81,9.8,2.43c2.12,1.62,3.19,4.08,3.19,7.38c0,2.44-0.64,4.48-1.92,6.12
			c-1.28,1.64-3.19,2.82-5.72,3.54l9.69,16.22h-2.98l-9.2-15.5h-8.86v15.5H432.38z M434.87,513.04h6.81c3.04,0,5.38-0.68,7.02-2.03
			c1.64-1.36,2.45-3.37,2.45-6.05c0-2.68-0.81-4.63-2.43-5.86s-4.27-1.85-7.95-1.85h-5.91V513.04z"/>
		<path d="M471.91,517.8c0-0.13,0-0.25,0-0.37c0-4.31,1.04-7.68,3.13-10.11s4.96-3.64,8.61-3.64s6.53,1.23,8.61,3.69
			c2.08,2.46,3.13,5.83,3.13,10.12c0,4.29-1.05,7.65-3.16,10.08s-5.01,3.65-8.72,3.65c-0.08,0-0.17,0-0.27,0
			c-3.36,0-6.09-1.25-8.19-3.73C472.96,525,471.91,521.78,471.91,517.8z M476.79,508.91c-1.59,2.01-2.38,4.84-2.38,8.49
			s0.8,6.51,2.4,8.58c1.61,2.03,3.89,3.05,6.82,3.05c2.93,0,5.2-1.02,6.79-3.05s2.4-4.89,2.4-8.56c0-3.67-0.81-6.51-2.43-8.52
			s-3.89-3.01-6.82-3.01S478.38,506.9,476.79,508.91z"/>
		<path d="M510.32,504.21h2.49l5.61,14.9c1.66,4.45,2.74,7.54,3.25,9.28h0.15c0.59-1.82,1.7-4.97,3.34-9.43l5.61-14.75h2.49
			l-11.89,30.83c-0.94,2.49-1.75,4.18-2.42,5.08c-1.3,1.76-3.12,2.64-5.44,2.64c-0.93,0-1.96-0.16-3.1-0.49v-2.1
			c0.93,0.26,1.94,0.39,3.05,0.39c1.63,0,2.93-0.81,3.91-2.42c0.54-0.85,1.13-2.15,1.78-3.91l1.32-3.47L510.32,504.21z"/>
		<path d="M575.3,530.74v-35.69h19.5v2.29h-17.01v13.5h16.06v2.29h-16.06v15.3h17.01v2.29H575.3z"/>
		<path d="M614.27,530.74v-37.98h2.39v37.98H614.27z"/>
		<path d="M637.23,496.85c0-1.57,0.44-2.36,1.33-2.36c0.57,0,1.01,0.2,1.33,0.61c0.32,0.41,0.48,0.98,0.48,1.72
			c0,0.74-0.16,1.32-0.48,1.75c-0.32,0.42-0.77,0.63-1.33,0.63C637.67,499.2,637.23,498.42,637.23,496.85z M637.57,530.74v-26.53
			h2.05v26.53H637.57z"/>
		<path d="M656.43,504.21h2.49l5.61,14.9c1.66,4.45,2.74,7.54,3.25,9.28h0.15c0.59-1.82,1.7-4.97,3.34-9.43l5.61-14.75h2.49
			l-11.89,30.83c-0.94,2.49-1.75,4.18-2.42,5.08c-1.3,1.76-3.12,2.64-5.44,2.64c-0.93,0-1.96-0.16-3.1-0.49v-2.1
			c0.93,0.26,1.94,0.39,3.05,0.39c1.63,0,2.93-0.81,3.91-2.42c0.54-0.85,1.13-2.15,1.78-3.91l1.32-3.47L656.43,504.21z"/>
		<path d="M695.92,529.24c-1.46-1.33-2.18-3.23-2.18-5.71s1.08-4.44,3.25-5.87c2.16-1.43,5.29-2.19,9.37-2.27l5.05-0.15v-1.76
			c0-2.57-0.52-4.49-1.56-5.75c-1.04-1.26-2.73-1.89-5.05-1.89s-4.83,0.68-7.52,2.05l-0.9-2.1c2.91-1.37,5.81-2.05,8.7-2.05
			c2.89,0,5.05,0.76,6.48,2.28c1.43,1.52,2.15,3.88,2.15,7.07v17.65h-1.78l-0.61-4.2h-0.2c-1.35,1.72-2.72,2.94-4.11,3.64
			c-1.39,0.7-3.05,1.05-4.99,1.05C699.41,531.23,697.38,530.57,695.92,529.24z M696.33,523.78c0,1.66,0.51,2.95,1.53,3.87
			c1.02,0.92,2.45,1.38,4.31,1.38c2.83,0,5.06-0.81,6.7-2.44s2.45-3.87,2.45-6.74v-2.61l-4.64,0.2c-3.73,0.18-6.38,0.76-7.97,1.75
			S696.33,521.7,696.33,523.78z"/>
	</g>
</g>
</svg>
